<?xml version="1.0" encoding="UTF-8"?>
<svg version="1.1" xmlns="http://www.w3.org/2000/svg" width="656" height="214">
<path d="M0 0 C1.77734375 1.40234375 1.77734375 1.40234375 3.77734375 3.40234375 C4.10734375 0.43234375 4.43734375 -2.53765625 4.77734375 -5.59765625 C15.66734375 -5.59765625 26.55734375 -5.59765625 37.77734375 -5.59765625 C37.82261212 8.29381459 37.85927011 22.18523606 37.88096809 36.07676411 C37.89138446 42.52784794 37.90550444 48.97887847 37.92822266 55.42993164 C37.95002759 61.66097217 37.96192851 67.89196159 37.96709824 74.12303734 C37.97078027 76.49475089 37.97797024 78.86646179 37.98880386 81.23815346 C38.0034204 84.57199676 38.00531745 87.90563153 38.00439453 91.23950195 C38.01158508 92.20983368 38.01877563 93.18016541 38.02618408 94.17990112 C37.98022193 109.62444714 34.54448466 121.68802562 23.5703125 132.765625 C12.49029497 143.22578141 -1.53732001 145.58298297 -16.28515625 145.65234375 C-17.35443359 145.67296875 -18.42371094 145.69359375 -19.52539062 145.71484375 C-34.82349115 145.78879227 -47.81626487 141.46355579 -58.9609375 130.84375 C-65.76227455 123.50206493 -68.98451665 115.32137224 -70.22265625 105.40234375 C-69.89265625 104.41234375 -69.56265625 103.42234375 -69.22265625 102.40234375 C-58.00265625 102.40234375 -46.78265625 102.40234375 -35.22265625 102.40234375 C-33.90265625 105.37234375 -32.58265625 108.34234375 -31.22265625 111.40234375 C-26.78857133 115.83642867 -24.16825905 116.69278228 -17.91015625 116.71484375 C-12.49243215 116.61159116 -8.80516365 116.32734847 -4.22265625 113.40234375 C0.29616542 107.69435848 0.92015102 103.2880606 0.83984375 96.21484375 C0.83533203 95.46525391 0.83082031 94.71566406 0.82617188 93.94335938 C0.81440729 92.09631992 0.7964724 90.24932162 0.77734375 88.40234375 C0.37644531 88.7890625 -0.02445313 89.17578125 -0.4375 89.57421875 C-8.69990606 97.14340707 -17.0110584 99.70570153 -28.22265625 99.40234375 C-42.20600228 97.80600128 -53.28477762 92.35082267 -62.22265625 81.40234375 C-72.81692684 66.80113121 -75.03825869 50.26694421 -72.75 32.79296875 C-70.09674901 19.51082608 -63.68812912 7.78857767 -52.7734375 -0.4453125 C-36.840804 -10.62518979 -15.58514069 -11.07587756 0 0 Z M-32.53515625 29.65234375 C-37.20845333 37.26808713 -38.65422149 44.85487484 -36.71875 53.70703125 C-34.55631142 60.25613094 -30.30606659 64.25939514 -24.22265625 67.40234375 C-18.44635956 68.35842044 -12.86264494 68.26683061 -7.72265625 65.27734375 C-2.62002387 61.49800815 0.18501347 56.92392032 1.52734375 50.6796875 C2.26695733 43.94227008 1.61798248 37.09708393 -2.22265625 31.40234375 C-5.67680382 27.16130457 -8.71468036 24.50393893 -14.22265625 23.40234375 C-21.70039092 22.67869201 -27.09034688 24.35469139 -32.53515625 29.65234375 Z " fill="#080808" transform="translate(553.22265625,62.59765625)"/>
<path d="M0 0 C1.43367509 0.04242534 2.86719601 0.09031052 4.30053711 0.14282227 C4.96790894 0.16348755 5.63528076 0.18415283 6.32287598 0.20544434 C8.82472767 0.28442928 11.32628992 0.37237644 13.82788086 0.45922852 C19.41725586 0.64485352 25.00663086 0.83047852 30.76538086 1.02172852 C31.09538086 16.53172852 31.42538086 32.04172852 31.76538086 48.02172852 C34.40538086 45.71172852 37.04538086 43.40172852 39.76538086 41.02172852 C50.77822281 35.51530754 62.03333594 34.02239339 74.07788086 37.45922852 C84.055808 41.3134211 90.03513511 48.28276128 94.60913086 57.73657227 C98.20469442 67.95234576 98.02964803 78.15387233 97.96069336 88.84204102 C97.95695655 90.55410597 97.95411274 92.26617309 97.95211792 93.97824097 C97.94453398 98.4531052 97.92493138 102.92783664 97.90270996 107.40264893 C97.87851168 112.78844459 97.86944557 118.174285 97.85780334 123.56011963 C97.83850324 131.71408121 97.80014438 139.86775224 97.76538086 148.02172852 C85.88538086 148.02172852 74.00538086 148.02172852 61.76538086 148.02172852 C61.73959961 143.28958008 61.71381836 138.55743164 61.68725586 133.68188477 C61.66206519 130.66946213 61.63571545 127.65713769 61.60522461 124.64477539 C61.55702338 119.87190483 61.51292891 115.09926183 61.49438477 110.32617188 C61.47915017 106.47443185 61.44458622 102.62329042 61.39707184 98.77181816 C61.38232763 97.30840724 61.37434387 95.84491081 61.37349701 94.38142586 C61.44999178 82.60386346 61.44999178 82.60386346 56.76538086 72.02172852 C52.12667054 68.92925497 48.20299399 68.58941857 42.84350586 69.45532227 C39.65104904 70.32544677 37.96632495 71.56184983 35.76538086 74.02172852 C32.4859021 80.34643755 31.66236713 86.25781688 31.56005859 93.30249023 C31.54011337 94.52330292 31.52016815 95.7441156 31.49961853 97.00192261 C31.47454979 98.95692184 31.47454979 98.95692184 31.44897461 100.95141602 C31.42837843 102.31048171 31.4073813 103.66954138 31.38600159 105.02859497 C31.33105573 108.58934626 31.28152639 112.15015269 31.2331543 115.71099854 C31.18273734 119.35108282 31.12720669 122.99108891 31.07202148 126.63110352 C30.96429691 133.76125113 30.8650606 140.89144574 30.76538086 148.02172852 C19.21538086 148.02172852 7.66538086 148.02172852 -4.23461914 148.02172852 C-4.2571651 128.87257899 -4.27559769 109.72344015 -4.28643131 90.57428074 C-4.29159454 81.68363025 -4.29863774 72.79298858 -4.31005859 63.90234375 C-4.32000462 56.15611625 -4.32647237 48.40989513 -4.32870764 40.66366142 C-4.33001488 36.55951933 -4.33310161 32.45539549 -4.3403492 28.35125923 C-4.34710813 24.49278211 -4.34923636 20.63433087 -4.34772682 16.77584839 C-4.34800321 15.35560402 -4.35000909 13.93535883 -4.35382462 12.51511955 C-4.35875981 10.58430981 -4.35701718 8.65348637 -4.35487366 6.72267151 C-4.35579545 5.63956475 -4.35671724 4.556458 -4.35766697 3.44052982 C-4.16832647 -0.2814135 -3.82544999 0.02569741 0 0 Z " fill="#060606" transform="translate(146.234619140625,18.978271484375)"/>
<path d="M0 0 C12.87 0 25.74 0 39 0 C54.14893617 43.25531915 54.14893617 43.25531915 61 63 C61 62.67 61 62.34 61 62 C61.33 61.01 61.66 60.02 62 59 C62 59.66 62 60.32 62 61 C62.66 61 63.32 61 64 61 C64.1015036 60.41888458 64.2030072 59.83776917 64.30758667 59.23904419 C65.60420292 52.26856352 67.54081139 45.61598162 69.6953125 38.8671875 C70.04761932 37.74933868 70.39992615 36.63148987 70.76290894 35.47976685 C71.87871332 31.94327627 73.00173193 28.40912614 74.125 24.875 C74.88719839 22.46369323 75.64892192 20.0522363 76.41015625 17.640625 C78.26707266 11.75836691 80.13374691 5.87933491 82 0 C93.88 0 105.76 0 118 0 C115.74992459 10.12533933 115.74992459 10.12533933 114.5546875 13.5246582 C114.15229607 14.68100014 114.15229607 14.68100014 113.74177551 15.86070251 C113.45573959 16.6659285 113.16970367 17.47115448 112.875 18.30078125 C112.57200485 19.16655289 112.2690097 20.03232452 111.95683289 20.92433167 C110.97619067 23.72216152 109.98822481 26.51734044 109 29.3125 C108.31577775 31.25979338 107.63194284 33.20722289 106.94848633 35.15478516 C102.83729654 46.85587785 98.67936703 58.54007784 94.48925781 70.21313477 C91.68475223 78.03918994 88.95143582 85.88781519 86.25 93.75 C85.21672622 96.75142429 84.18334032 99.75280991 83.1497345 102.75411987 C81.8408252 106.55550368 80.53389065 110.35755722 79.22851562 114.16015625 C77.64291669 118.77625778 76.04898524 123.38942332 74.45056152 128.00109863 C73.8184111 129.82919616 73.18892062 131.65821573 72.56213379 133.48815918 C71.68363986 136.0518078 70.79603379 138.61212682 69.90625 141.171875 C69.6420929 141.94958252 69.37793579 142.72729004 69.10577393 143.52856445 C67.2279879 148.88600605 67.2279879 148.88600605 65 150 C62.22839374 150.08683445 59.48225235 150.1155579 56.7109375 150.09765625 C55.48330185 150.09553383 55.48330185 150.09553383 54.23086548 150.09336853 C51.61220675 150.0877629 48.99363296 150.07520948 46.375 150.0625 C44.60156373 150.05748572 42.82812613 150.05292269 41.0546875 150.04882812 C36.70309218 150.03779164 32.3515605 150.02052325 28 150 C28.56155035 144.80921599 29.81628469 140.31182669 31.7578125 135.45703125 C32.30616133 134.03977998 32.85433328 132.62246026 33.40234375 131.20507812 C34.26572708 128.99829794 35.1327008 126.7930083 36.00341797 124.58911133 C36.84760396 122.44444186 37.6783164 120.29491641 38.5078125 118.14453125 C38.77232208 117.48717484 39.03683167 116.82981842 39.30935669 116.15254211 C40.6083213 112.76802285 41.4522806 110.44038029 40 107 C40.33 107.66 40.66 108.32 41 109 C41 106.13336836 40.67563174 104.79916913 39.65478516 102.20288086 C39.36092926 101.44877426 39.06707336 100.69466766 38.76431274 99.91770935 C38.44248016 99.1082637 38.12064758 98.29881805 37.7890625 97.46484375 C37.46086517 96.63038223 37.13266785 95.79592072 36.79452515 94.93617249 C36.09926585 93.17251525 35.4014132 91.40987847 34.70117188 89.64819336 C33.62896529 86.94748789 32.56786482 84.24260502 31.5078125 81.53710938 C30.8313938 79.82525806 30.15433204 78.11366068 29.4765625 76.40234375 C28.99988632 75.18513893 28.99988632 75.18513893 28.51358032 73.94334412 C28.2134201 73.19238968 27.91325989 72.44143524 27.60400391 71.66772461 C27.34197174 71.00614853 27.07993958 70.34457245 26.80996704 69.66294861 C26.01156881 67.79418428 26.01156881 67.79418428 24 66 C24 65.01 24 64.02 24 63 C23.46153985 61.36068974 22.86129033 59.74135366 22.22753906 58.13647461 C21.84003479 57.14791977 21.45253052 56.15936493 21.05328369 55.14085388 C20.62835632 54.07214554 20.20342896 53.00343719 19.765625 51.90234375 C19.3311908 50.79830704 18.89675659 49.69427032 18.44915771 48.55677795 C17.05419817 45.01512026 15.65216553 41.47631015 14.25 37.9375 C13.31985232 35.57895747 12.39015941 33.22023554 11.4609375 30.86132812 C9.74006744 26.49621726 8.01723388 22.1318995 6.29003906 17.76928711 C5.90851685 16.80433319 5.52699463 15.83937927 5.13391113 14.84518433 C4.36924493 12.92650108 3.59584422 11.01127884 2.81433105 9.09939575 C2.44731079 8.19978119 2.08029053 7.30016663 1.70214844 6.37329102 C1.37390076 5.57689713 1.04565308 4.78050323 0.7074585 3.9599762 C0 2 0 2 0 0 Z " fill="#080808" transform="translate(362,57)"/>
<path d="M0 0 C9.45604995 7.75926342 13.11696556 17.30840804 14.56643295 29.25255013 C14.8824557 32.4737398 14.90469257 35.66860402 14.90673828 38.90405273 C14.90936676 39.95678123 14.90936676 39.95678123 14.91204834 41.03077698 C14.91640332 43.32002326 14.91355378 45.60919061 14.91015625 47.8984375 C14.91083059 49.49886591 14.91180169 51.09929423 14.91305542 52.69972229 C14.9145233 56.03737371 14.9124052 59.37499821 14.90771484 62.71264648 C14.90198558 66.99905476 14.90532236 71.28540085 14.91128731 75.57180691 C14.91488994 78.8684995 14.91375628 82.16517717 14.91115952 85.46187019 C14.91049109 87.04358998 14.91131573 88.62531112 14.91363907 90.20702934 C14.91616419 92.40685536 14.91232855 94.60657821 14.90673828 96.80639648 C14.90594269 98.0591185 14.90514709 99.31184052 14.90432739 100.6025238 C14.77734375 103.40234375 14.77734375 103.40234375 13.77734375 104.40234375 C11.77776011 104.44315158 9.77689121 104.44488731 7.77734375 104.40234375 C7.77734375 104.07234375 7.77734375 103.74234375 7.77734375 103.40234375 C0.51734375 103.40234375 -6.74265625 103.40234375 -14.22265625 103.40234375 C-14.55265625 101.42234375 -14.88265625 99.44234375 -15.22265625 97.40234375 C-19.12716223 97.8756172 -21.81317039 99.19908234 -25.0859375 101.3671875 C-31.33385327 104.39405712 -37.78273447 104.76222205 -44.59765625 104.71484375 C-45.43401611 104.7099292 -46.27037598 104.70501465 -47.13208008 104.69995117 C-57.79445166 104.49759959 -66.52916814 101.76755868 -74.390625 94.359375 C-82.02625977 86.27867591 -84.42900865 78.51785966 -84.22265625 67.40234375 C-83.07943584 58.43416813 -80.29449218 51.35323043 -73.06640625 45.72265625 C-61.37803304 38.09485425 -48.25995684 36.21993913 -34.59765625 36.27734375 C-33.20546875 36.27154297 -33.20546875 36.27154297 -31.78515625 36.265625 C-30.88539063 36.26691406 -29.985625 36.26820312 -29.05859375 36.26953125 C-28.2495459 36.27065918 -27.44049805 36.27178711 -26.60693359 36.27294922 C-24.06708987 36.41078632 -21.70212484 36.84761705 -19.22265625 37.40234375 C-19.97778716 29.29853858 -19.97778716 29.29853858 -23.59765625 22.21484375 C-28.20095048 19.03637868 -32.67896419 18.8137278 -38.22265625 19.40234375 C-42.92049706 21.11886251 -45.49851669 23.21884371 -48.22265625 27.40234375 C-48.88265625 29.38234375 -49.54265625 31.36234375 -50.22265625 33.40234375 C-60.78265625 33.40234375 -71.34265625 33.40234375 -82.22265625 33.40234375 C-80.60556079 18.84848463 -76.42598857 8.98444849 -65.02734375 -0.40625 C-46.41703483 -13.78032505 -18.48390148 -13.28631934 0 0 Z M-47.28515625 61.96484375 C-48.24421875 63.17140625 -48.24421875 63.17140625 -49.22265625 64.40234375 C-49.55265625 64.73234375 -49.88265625 65.06234375 -50.22265625 65.40234375 C-50.60567363 68.65799147 -50.89908567 71.26402409 -49.17578125 74.1640625 C-47.38508723 76.33922906 -45.76216844 78.13258766 -43.22265625 79.40234375 C-34.8403904 80.00438494 -28.47922241 80.08369827 -21.91015625 74.40234375 C-19.14543894 71.12564175 -19.10661837 68.33726069 -19.16015625 64.21484375 C-19.16917969 63.31378906 -19.17820312 62.41273437 -19.1875 61.484375 C-19.19910156 60.79730469 -19.21070313 60.11023438 -19.22265625 59.40234375 C-27.18838529 55.41947923 -40.46384686 56.25721753 -47.28515625 61.96484375 Z " fill="#090909" transform="translate(343.22265625,64.59765625)"/>
<path d="M0 0 C0.68320313 0.47953125 1.36640625 0.9590625 2.0703125 1.453125 C10.90814801 8.37553608 15.42562588 17.72266877 16.90625 28.69921875 C16.9371875 29.45847656 16.968125 30.21773437 17 31 C16 32 16 32 12.85717773 32.11352539 C11.46597303 32.11336633 10.07476239 32.10767506 8.68359375 32.09765625 C7.58701195 32.09553383 7.58701195 32.09553383 6.46827698 32.09336853 C4.12464368 32.08775408 1.78110461 32.07519922 -0.5625 32.0625 C-2.14778508 32.05748686 -3.73307166 32.05292363 -5.31835938 32.04882812 C-9.2122761 32.03777997 -13.10612205 32.02050572 -17 32 C-17.45439453 30.96939453 -17.45439453 30.96939453 -17.91796875 29.91796875 C-20.4303932 24.41303378 -20.4303932 24.41303378 -24.33984375 19.8984375 C-27.8436697 18.71506016 -30.8670578 18.60298148 -34.5625 18.625 C-36.51349609 18.61339844 -36.51349609 18.61339844 -38.50390625 18.6015625 C-42.0699462 19.00797152 -43.45723569 19.55428776 -46 22 C-45.505 24.97 -45.505 24.97 -45 28 C-38.19986266 29.99364186 -31.4239622 31.55063243 -24.44726562 32.78613281 C4.76200408 37.96343723 4.76200408 37.96343723 15 50 C19.9784988 58.64985751 20.14243413 68.09758742 17.875 77.6875 C15.24922971 86.2731582 9.34382358 92.94804083 2 98 C-15.62845395 107.20380607 -37.82768371 107.78138052 -56.71484375 102.1953125 C-67.52063156 98.26359898 -76.06454638 91.89149922 -81.7421875 81.76171875 C-84.51287875 75.67824449 -86.64316233 69.5726493 -85 63 C-68.665 63.495 -68.665 63.495 -52 64 C-50.68 66.64 -49.36 69.28 -48 72 C-43.37947593 76.87721985 -38.00734556 77.72660495 -31.5625 78.3125 C-27.06848517 77.91828817 -23.19628789 76.59858586 -19 75 C-18.14025199 72.70705512 -18.14025199 72.70705512 -18 70 C-20.73134106 66.56905651 -22.92272092 65.42164906 -27.18359375 64.62109375 C-28.68950073 64.32537476 -28.68950073 64.32537476 -30.22583008 64.02368164 C-31.28568115 63.8302417 -32.34553223 63.63680176 -33.4375 63.4375 C-35.61726836 63.00822289 -37.79695665 62.57853898 -39.9765625 62.1484375 C-42.72282851 61.62223226 -45.46970481 61.09970764 -48.21777344 60.58300781 C-60.62171687 58.216338 -70.70105757 53.71584931 -78 43 C-82.12939917 35.42478463 -82.07500619 26.36786426 -80.4140625 18.07421875 C-77.49922826 8.62106366 -71.53732914 1.66699544 -62.87768555 -3.08276367 C-44.29055693 -12.47507601 -17.40290696 -12.44063228 0 0 Z " fill="#080808" transform="translate(107,64)"/>
<path d="M0 0 C0.66 0.33 1.32 0.66 2 1 C-3.02672374 6.81744433 -7.9104712 12.26369982 -14 17 C-12.59445027 12.76815568 -10.57219402 10.07917939 -7.5625 6.8125 C-6.78003906 5.95269531 -5.99757813 5.09289062 -5.19140625 4.20703125 C-3 2 -3 2 0 0 Z " fill="#5C5C5C" transform="translate(501,62)"/>
<path d="M0 0 C0.66 0.33 1.32 0.66 2 1 C-0.31 3.31 -2.62 5.62 -5 8 C-5.66 7.67 -6.32 7.34 -7 7 C-4.66666667 4.66666667 -2.33333333 2.33333333 0 0 Z " fill="#4A4A4A" transform="translate(272,109)"/>
<path d="M0 0 C0.66 0.33 1.32 0.66 2 1 C-1.465 3.97 -1.465 3.97 -5 7 C-3.92643531 2.70574125 -3.4915227 2.25259529 0 0 Z " fill="#444444" transform="translate(501,62)"/>
<path d="M0 0 C5.94 0.99 5.94 0.99 12 2 C12 2.33 12 2.66 12 3 C7.45194365 3.17835515 4.1205746 2.99785435 0 1 C0 0.67 0 0.34 0 0 Z " fill="#FFFFFF" transform="translate(511,160)"/>
<path d="M0 0 C1.53202706 0.25195908 3.05257128 0.57596777 4.5625 0.9375 C5.38878906 1.13214844 6.21507813 1.32679687 7.06640625 1.52734375 C8.02353516 1.76130859 8.02353516 1.76130859 9 2 C9 2.33 9 2.66 9 3 C2.9453125 3.1953125 2.9453125 3.1953125 1 3 C0.34 2.34 -0.32 1.68 -1 1 C-0.67 0.67 -0.34 0.34 0 0 Z " fill="#FFFFFF" transform="translate(88,95)"/>
<path d="M0 0 C2.64 0.33 5.28 0.66 8 1 C8 1.33 8 1.66 8 2 C5.69 2 3.38 2 1 2 C0.67 1.34 0.34 0.68 0 0 Z " fill="#FFFFFF" transform="translate(51,124)"/>
<path d="M0 0 C0.66 0 1.32 0 2 0 C1.67 0.99 1.34 1.98 1 3 C0.01 2.67 -0.98 2.34 -2 2 C-1.34 1.34 -0.68 0.68 0 0 Z " fill="#FFFFFF" transform="translate(552,153)"/>
<path d="M0 0 C1.98 0 3.96 0 6 0 C6 0.33 6 0.66 6 1 C4.02 1 2.04 1 0 1 C0 0.67 0 0.34 0 0 Z " fill="#FFFFFF" transform="translate(237,168)"/>
<path d="M0 0 C4 1 4 1 4 1 Z " fill="#FFFFFF" transform="translate(209,168)"/>
<path d="M0 0 C0.66 0.33 1.32 0.66 2 1 C1.01 1 0.02 1 -1 1 C-0.67 0.67 -0.34 0.34 0 0 Z " fill="#FFFFFF" transform="translate(293,99)"/>
<path d="M0 0 C3 1 3 1 3 1 Z " fill="#FFFFFF" transform="translate(45,122)"/>
<path d="" fill="#FFFFFF" transform="translate(0,0)"/>
<path d="M0 0 C2 1 2 1 2 1 Z " fill="#FFFFFF" transform="translate(331,168)"/>
<path d="M0 0 C2 1 2 1 2 1 Z " fill="#FFFFFF" transform="translate(282,168)"/>
<path d="M0 0 C2 1 2 1 2 1 Z " fill="#FFFFFF" transform="translate(533,162)"/>
<path d="" fill="#FFFFFF" transform="translate(0,0)"/>
<path d="M0 0 C2 1 2 1 2 1 Z " fill="#FFFFFF" transform="translate(321,125)"/>
<path d="M0 0 C2 1 2 1 2 1 Z " fill="#FFFFFF" transform="translate(316,124)"/>
<path d="" fill="#FFFFFF" transform="translate(0,0)"/>
<path d="" fill="#FFFFFF" transform="translate(0,0)"/>
<path d="" fill="#FFFFFF" transform="translate(0,0)"/>
<path d="" fill="#FFFFFF" transform="translate(0,0)"/>
<path d="" fill="#FFFFFF" transform="translate(0,0)"/>
<path d="" fill="#FFFFFF" transform="translate(0,0)"/>
<path d="" fill="#FFFFFF" transform="translate(0,0)"/>
<path d="" fill="#FFFFFF" transform="translate(0,0)"/>
<path d="" fill="#FFFFFF" transform="translate(0,0)"/>
<path d="" fill="#FFFFFF" transform="translate(0,0)"/>
<path d="" fill="#FFFFFF" transform="translate(0,0)"/>
<path d="" fill="#FFFFFF" transform="translate(0,0)"/>
<path d="" fill="#FFFFFF" transform="translate(0,0)"/>
<path d="" fill="#FFFFFF" transform="translate(0,0)"/>
<path d="" fill="#FFFFFF" transform="translate(0,0)"/>
<path d="" fill="#FFFFFF" transform="translate(0,0)"/>
<path d="" fill="#FFFFFF" transform="translate(0,0)"/>
<path d="" fill="#FFFFFF" transform="translate(0,0)"/>
<path d="" fill="#FFFFFF" transform="translate(0,0)"/>
<path d="" fill="#FFFFFF" transform="translate(0,0)"/>
<path d="" fill="#FFFFFF" transform="translate(0,0)"/>
<path d="" fill="#FFFFFF" transform="translate(0,0)"/>
<path d="" fill="#FFFFFF" transform="translate(0,0)"/>
<path d="" fill="#FFFFFF" transform="translate(0,0)"/>
</svg>
